<?xml version="1.0" encoding="UTF-8" standalone="no"?>
<!-- Generator: Adobe Illustrator 15.0.0, SVG Export Plug-In . SVG Version: 6.00 Build 0)  -->

<svg
   xmlns:dc="http://purl.org/dc/elements/1.1/"
   xmlns:cc="http://creativecommons.org/ns#"
   xmlns:rdf="http://www.w3.org/1999/02/22-rdf-syntax-ns#"
   xmlns:svg="http://www.w3.org/2000/svg"
   xmlns="http://www.w3.org/2000/svg"
   xmlns:sodipodi="http://sodipodi.sourceforge.net/DTD/sodipodi-0.dtd"
   xmlns:inkscape="http://www.inkscape.org/namespaces/inkscape"
   version="1.1"
   id="Calque_1"
   x="0px"
   y="0px"
   width="567"
   height="550"
   viewBox="0 0 567 550"
   enable-background="new 0 0 1024 768"
   xml:space="preserve"
   inkscape:version="0.48.1 r9760"
   sodipodi:docname="map.svg"><metadata
   id="metadata94"><rdf:RDF><cc:Work
       rdf:about=""><dc:format>image/svg+xml</dc:format><dc:type
         rdf:resource="http://purl.org/dc/dcmitype/StillImage" /></cc:Work></rdf:RDF></metadata><defs
   id="defs92" /><sodipodi:namedview
   pagecolor="#ffffff"
   bordercolor="#666666"
   borderopacity="1"
   objecttolerance="10"
   gridtolerance="10"
   guidetolerance="10"
   inkscape:pageopacity="0"
   inkscape:pageshadow="2"
   inkscape:window-width="1280"
   inkscape:window-height="722"
   id="namedview90"
   showgrid="false"
   inkscape:zoom="0.79"
   inkscape:cx="512"
   inkscape:cy="247.76617"
   inkscape:window-x="0"
   inkscape:window-y="24"
   inkscape:window-maximized="1"
   inkscape:current-layer="Calque_1"
   inkscape:snap-page="true"
   fit-margin-top="0"
   fit-margin-left="0"
   fit-margin-right="0"
   fit-margin-bottom="0" />
<g
   id="Calque_30"
   data-commune="Saint-Aubin-de-Médoc">
	<path
   d="m 189.704,180 0.002,0 0.508,1.195 0.17,0.47 C 197.19,195.244 214.191,202 216.872,203 l 27.714,0 2.763,-29.678 10.697,-15.042 -21.462,-38.234 -30.139,-26.543 -41.316,33.048 -7.202,0.958 -8.092,34.275 11.461,18.216 z"
   id="path4"
   inkscape:connector-curvature="0"
   style="fill:#b3b3b3"
   sodipodi:nodetypes="ccccccccccccccc" />
</g>
<g
   id="Calque_29"
   data-commune="Saint-Médard-en-Jalles">
	<path
   d="M 221.098,290.584 251.051,257.882 263.056,225.919 245.78,208 l -29.678,0 -0.056,0 -0.329,0.193 C 214.435,207.821 195.76,202 186.703,186 l -28.14,0 -12.84,-20.987 -33.736,-5.361 L 93.38,203.014 56.562,227.712 22,216.68 l 0,52.361 36.258,18.51 44.456,-24.344 73.705,-7.305 12.114,32.09 z"
   id="path7"
   inkscape:connector-curvature="0"
   style="fill:#b3b3b3"
   sodipodi:nodetypes="cccccccccccccccccccc" />
</g>
<g
   id="Calque_28"
   data-commune="Le Taillan-Médoc">
	<path
   style="fill:#b3b3b3"
   d="m 249.371,204.657 17.475,18.125 9.164,-0.825 4.023,-0.364 0.948,-0.087 4.223,-0.389 19.796,-1.794 0,-20.903 -22.917,-18.11 1.339,-20.878 -21.159,1.333 -10.153,14.367 z"
   id="polygon10"
   inkscape:connector-curvature="0"
   sodipodi:nodetypes="ccccccccccccc" />
</g>
<g
   id="Calque_27"
   data-commune="Gradignan">
	<path
   d="m 347.796,435.565 1.889,-10.684 -22.123,-5.146 -4.051,-4.118 -30.364,26.579 0.838,20.472 -2.985,2.857 0,3.595 3.801,0.828 10.995,17.378 -1.363,1.396 c -2.741,2.847 -5.949,6.508 -6.571,7.665 -0.027,0.821 0.243,2.979 0.671,5.661 2.249,-5.493 3.479,-5.897 4.611,-5.929 1.223,-0.504 5.301,-3.374 8.506,-5.879 l 1.223,-0.926 5.433,2.998 16.397,-16.312 3.025,0 5.995,-9.576 6.011,-1.372 4.903,-15.487 z"
   id="path13"
   inkscape:connector-curvature="0"
   style="fill:#b3b3b3"
   sodipodi:nodetypes="ccccccccccccccccccccccc" />
</g>
<g
   id="Calque_26"
   data-commune="Blanquefort">
	<path
   d="m 310,218.88 0,3.776 43.784,-3.788 -0.899,-2.22 4.923,-11.338 28.641,10.883 9.625,-3.924 15.679,-6.393 c -1.711,-7.116 -6.704,-30.416 -3.181,-47.124 l -9.191,1.654 -13.881,12.749 -43.572,-12.118 -13.173,-22.397 -34.571,11.37 -5.698,7.673 -1.299,20.358 22.813,17.992 z"
   id="path16"
   inkscape:connector-curvature="0"
   style="fill:#b3b3b3"
   sodipodi:nodetypes="cccccccccccccccccc" />
</g>
<g
   id="Calque_25"
   data-commune="Pessac">
	<path
   d="m 334.391,372.256 7.437,-5.337 -8.267,-4.657 -56.606,0.48 -44.806,18.02 -0.146,-0.003 -0.324,0.131 -37.682,-0.884 -9.179,17.563 3.52,6.002 -5.692,13.137 2.16,15.554 -31.779,37.558 6.717,8.055 48.721,-44.271 36.184,-14.395 8.707,10.816 c 6.843,0.768 29.24,3.518 37.027,7.42 l 30.874,-27.012 z"
   id="path19"
   inkscape:connector-curvature="0"
   style="fill:#b3b3b3"
   sodipodi:nodetypes="cccccccccccccccccccc" />
</g>
<g
   id="Calque_24"
   data-commune="Mérignac">
	<path
   style="fill:#b3b3b3"
   d="m 275.869,357.821 56.69,-0.482 3.593,-15.065 -26.98,-8.995 1.307,-41.02 -20.734,-9.054 -15.917,6.964 -0.18,0.457 -1.11,0.107 -5.09,2.228 0.71,-1.803 -44.886,4.349 -0.174,0.19 -0.977,-0.078 -6.161,0.597 0.929,-1.013 -33.889,-2.695 -8.694,29.414 19.218,10.198 11.531,27.853 -8.908,15.032 34.961,0.82 z"
   id="polygon22"
   inkscape:connector-curvature="0"
   sodipodi:nodetypes="ccccccccccccccccccccccc" />
</g>
<g
   id="Calque_23"
   data-commune="Parempuyre">
	<path
   d="m 384.186,167.691 12.922,-11.866 13.397,-2.413 c 1.852,-2.868 9.136,-16.36 12.214,-54.791 l -3.702,-1.14 -2.995,3.456 -36.975,10.16 -38.366,-3.418 -8.156,27.681 12.631,21.477 z"
   id="path25"
   inkscape:connector-curvature="0"
   style="fill:#b3b3b3"
   sodipodi:nodetypes="ccccccccccc" />
</g>
<g
   id="Calque_22"
   data-commune="Bordeaux">
	<path
   d="m 387.133,272.748 1.457,0.917 -1.537,1.485 -0.11,3.281 -1.991,-1.254 -4.278,4.133 -14.624,27.449 -17.42,-15.943 -13.438,-1.505 -8.21,-19.282 -6.303,4.224 2.749,8.458 -8.019,7.1 -1.211,37.949 27.772,9.24 0.005,0 -0.454,1.916 -4.168,17.632 9.314,5.228 12.952,-9.31 1.842,-1.355 17.343,21.392 7.003,8.498 32.46,0 c -0.081,-3 -1.671,-13.111 -13.252,-26.369 -16.823,-19.256 -24.919,-28.759 -25.161,-37.689 -0.234,-8.68 16.247,-29.816 18.128,-32.201 l 0.262,-0.271 c 0.19,-0.177 19.103,-17.902 20.952,-39.472 1.492,-17.424 -3.613,-31.447 -5.785,-36.497 l -24.526,10.004 z"
   id="path28"
   inkscape:connector-curvature="0"
   style="fill:#b3b3b3"
   sodipodi:nodetypes="cccccccccccccccccccccccccccccccc" />
</g>
<g
   id="Calque_21"
   data-commune="Villenave-d'Ornon">
	<path
   style="fill:#b3b3b3"
   d="m 422.683,427.772 -5.537,4.114 -11.596,1.757 -23.301,9.222 -0.672,-32.265 -24.653,11.847 -1.993,0.958 -2.022,11.437 7.007,14.275 -5.675,17.798 9.155,22.915 5.375,4.16 3.884,12.468 4.84,0.88 3.772,-3.512 -3.131,-15.019 13.445,-4.051 3.221,-8.821 17.171,-5.951 5.127,-16.717 6.818,3.74 16.246,-7.979 -8.75,-20.853 z"
   id="polygon31"
   inkscape:connector-curvature="0"
   sodipodi:nodetypes="cccccccccccccccccccccccc" />
</g>
<g
   id="Calque_20"
   data-commune="Talence">
	<path
   style="fill:#b3b3b3"
   d="m 347.053,369.642 -0.063,-0.036 -8.099,5.816 -12.45,36.184 3.615,3.668 20.521,4.774 20.518,-9.861 10.452,-5.024 0.6,-18.477 -21.587,-26.812 z"
   id="polygon34"
   inkscape:connector-curvature="0"
   sodipodi:nodetypes="ccccccccccc" />
</g>
<g
   id="Calque_19"
   data-commune="Bègles">
	<path
   style="fill:#b3b3b3"
   d="m 386.771,395.441 -0.361,11.255 0.602,28.982 17.251,-6.819 10.937,-1.65 5.959,-4.426 8.525,0.239 L 418.75,388 l -31.742,0 z"
   id="polygon37"
   inkscape:connector-curvature="0"
   sodipodi:nodetypes="cccccccccc" />
</g>
<g
   id="Calque_18"
   data-commune="Le Bouscat">
	<path
   style="fill:#b3b3b3"
   d="m 338.586,286.751 12.179,1.362 13.927,12.747 12.011,-22.546 3.968,-3.831 -13.102,-8.25 -18.368,3.898 -10.55,-6.965 -7.575,5.942 z"
   id="polygon40"
   inkscape:connector-curvature="0"
   sodipodi:nodetypes="cccccccccc" />
</g>
<g
   id="Calque_17"
   data-commune="Le Haillan">
	<path
   style="fill:#b3b3b3"
   d="m 278.507,226.665 -10.85,0.977 -12.342,32.91 -27.078,29.539 41.944,-4.066 11.559,-29.321 -10.249,-7.045 z"
   id="polygon43"
   inkscape:connector-curvature="0"
   sodipodi:nodetypes="cccccccc" />
</g>
<g
   id="Calque_16"
   data-commune="Bruges">
	<path
   style="fill:#b3b3b3"
   d="m 338.268,253.559 2.21,4.926 9.713,6.417 18.309,-3.887 13.819,8.702 1.65,-49.213 -23.516,-8.937 -2.198,5.072 2.858,6.531 -25.657,2.225 z"
   id="polygon46"
   inkscape:connector-curvature="0"
   sodipodi:nodetypes="ccccccccccc" />
</g>
<g
   id="Calque_15"
   data-commune="Eysines">
	<path
   style="fill:#b3b3b3"
   d="m 312.531,287.796 5.229,-4.63 -2.88,-8.856 -10e-4,-10e-4 -0.025,-0.069 1.486,-1 19.111,-13.912 -2.034,-4.489 -2.985,-29.02 -25.432,2.193 0,-3.758 -1.427,0.141 -19.808,1.793 -6.536,21.461 10.508,7.22 -11.358,28.822 13.362,-5.847 z"
   id="polygon49"
   inkscape:connector-curvature="0"
   sodipodi:nodetypes="cccccccccccccccccc" />
</g>
<g
   id="Calque_14"
   data-commune="Lormont">
	<path
   d="m 472.986,249 -5.221,0 -6.746,0 c -0.026,4 -0.276,10.119 -1.66,13.954 -1.334,3.69 -2.82,7.534 -3.471,9.312 l 3.427,8.023 31.784,4.721 17.648,-16.42 -4.112,-17.208 -7.783,-2.382 z"
   id="path52"
   inkscape:connector-curvature="0"
   style="fill:#b3b3b3"
   sodipodi:nodetypes="ccccccccccc" />
</g>
<g
   id="Calque_13"
   data-commune="Artigues-près-Bordeaux">
	<path
   d="m 488.233,314.854 6.316,17.774 6.109,-12.851 5.762,-0.135 5.057,-11.759 5.542,-0.809 c 1.607,-4.044 5.98,-13.737 7.98,-17.345 l 0,-13.245 -13.067,-4.295 -2.837,2.743 -14.979,13.945 z"
   id="path55"
   inkscape:connector-curvature="0"
   style="fill:#b3b3b3"
   sodipodi:nodetypes="cccccccccccc" />
</g>
<g
   id="Calque_12"
   data-commune="Carbon-Blanc">
	<path
   style="fill:#b3b3b3"
   d="m 487.675,236.2 -12.441,6.195 -0.483,1.605 20.939,0 13.608,-29.767 -10.718,-5.108 z"
   id="polygon58"
   inkscape:connector-curvature="0"
   sodipodi:nodetypes="ccccccc" />
</g>
<g
   id="Calque_11"
   data-commune="Ambarès-et-Lagrave">
	<path
   style="fill:#b3b3b3"
   d="m 530,135.323 -10.039,1.199 -17.695,-27.209 3.358,-27.851 L 501,80 l -8.797,0 -13.81,68.191 7.504,3.866 -5.333,15.698 -8.688,2.804 -8.658,16.808 32.728,15.059 2.376,1.112 2.1,0.979 -0.008,0.087 10.955,5.002 L 536.592,156 530,156 z"
   id="polygon61"
   inkscape:connector-curvature="0"
   sodipodi:nodetypes="ccccccccccccccccccc" />
</g>
<g
   id="Calque_10">
	<path
   d="m 0,0 0,550 567,0 0,-550 z m 423.793,462.54 -3.766,-2.065 -4.091,13.334 -17.321,6.004 -3.265,8.937 -11.488,3.463 2.778,13.325 -7.601,7.078 -10.189,-1.848 -4.309,-13.823 -5.21,-4.016 -9.221,-23.042 -3.394,0.991 -6.32,10.122 -3.638,0 -17.458,17.343 -5.857,-3.188 c -5.251,4.025 -7.668,5.28 -8.896,5.711 -0.977,1.566 -3,6.975 -4.434,11.542 l -2.87,9.134 -1.878,-9.41 c -1.95,-9.749 -2.707,-15.492 -2.258,-17.064 0.486,-1.703 3.536,-5.247 6.445,-8.348 l -7.827,-12.389 -5.725,-1.225 0,-9.742 2.951,-2.785 -0.729,-18.806 c -4.368,-2.384 -21.308,-5.342 -36.393,-6.977 l -1.019,-0.108 -7.712,-9.575 -31.989,12.725 -51.857,47.118 -12.641,-15.16 33.026,-39.032 -2.047,-14.744 5.249,-12.114 -3.635,-6.199 9.318,-17.829 -0.958,-0.022 12.013,-20.272 -9.916,-23.951 -21.204,-11.251 10.961,-37.084 3.695,0.294 -9.982,-26.422 -68.983,6.829 L 58.294,293.108 17,272.054 l 0,-62.087 38.751,12.316 33.711,-22.605 19.523,-45.589 36.363,5.596 8.575,-36.599 9.206,-1.229 43.469,-34.776 33.86,29.809 21.877,38.951 22.478,-1.413 6.35,-8.597 36.714,-12.073 9.23,-31.328 41.493,3.696 34.685,-9.529 4.116,-4.751 10.513,3.235 -0.145,1.954 c -3.233,43.257 -11.717,57.133 -13.63,59.76 -5.236,17.212 2.063,46.704 2.825,49.675 1.165,2.326 9.013,18.933 7.125,40.952 -1.945,22.701 -20.368,40.646 -22.365,42.529 -6.682,8.499 -17.101,23.73 -16.96,28.908 0.195,7.223 8.347,16.88 23.949,34.741 15.015,17.187 14.744,29.032 14.357,32.074 l 12.313,39.268 11.099,26.452 z m 123.665,-313.429 -4.926,5.585 -27.754,59.089 -14.164,30.708 8.153,2.816 4.67,20.191 16.563,5.417 0,18.641 -0.57,0.71 c -1.405,1.479 -5.249,10.277 -8.232,17.929 l -0.512,1.334 -5.752,0.821 -5.232,12.115 -5.896,0.125 -6.967,14.617 1.477,5.384 14.507,0.599 3.875,5.809 7.287,0 4.768,8.371 -28.144,21.996 c -3.342,13.162 -5.666,13.565 -6.924,13.746 -0.166,0.021 -0.341,0.072 -0.523,0.072 -1.996,0 -4.586,-1.808 -6.646,-3.601 -1.599,1.876 -3.972,4.067 -6.443,4.196 -0.102,0.006 -0.344,0.036 -0.525,0.058 2.355,9.205 -1.528,29.39 -2,31.753 l -0.448,2.261 -2.283,-0.303 c -1.554,-0.208 -6.556,-2.056 -5.693,-17.122 0.756,-13.211 -6.098,-24.713 -8.678,-29.043 -1.984,-3.326 -2.877,-8.104 -3.264,-11.009 l -0.088,0.014 -0.054,-2.543 0,-10e-4 -0.069,-0.048 c -0.083,-1.537 -2.576,-9.36 -4.981,-16.304 -2.351,-1.993 -12.149,-10.288 -14.835,-12.598 -2.874,-2.471 -16.705,-17.226 -17.876,-26.43 -1.439,-11.321 18.996,-28.543 19.202,-28.716 5.166,-4.32 11.484,-13.026 12.58,-14.566 0.445,-1.217 2.162,-5.691 3.682,-9.9 1.048,-2.902 1.326,-8.285 1.362,-12.285 l -0.434,0 0.417,-2.665 -0.056,-2.334 0.222,0 c 0.084,-11 -6.003,-43.581 -8.84,-57.686 l -0.037,-0.214 -0.227,-1.321 -0.95,-4.686 0.231,0.095 c -0.832,-5.76 -1.987,-15.571 -1.109,-20.84 0.578,-3.457 3.485,-7.277 7.165,-12.111 5.134,-6.743 11.521,-15.136 13.014,-24.811 2.319,-15.045 -4.722,-41.76 -5.833,-45.821 C 457.522,74.218 446.681,62.291 440.051,57.318 432.072,51.335 422.886,34.331 422.498,33.61 l -1.841,-3.429 31.258,-1.487 32.655,16.331 25.001,3.488 2.623,0.365 1.914,1.523 12.574,9.996 6.291,42.59 17.085,36.103 z"
   id="path64"
   inkscape:connector-curvature="0"
   style="fill:#b3b3b3"
   sodipodi:nodetypes="cccccccccccccccccccccccccccccccccccccccccccccccccccccccccccccccccccccccccccccccccccccccccccccccccccccccccsccccccccccccccccccscccccccccccccccccccccccccc" />
</g>
<g
   id="Calque_9"
   data-commune="Saint-Vincent-de-Paul">
	<path
   style="fill:#b3b3b3"
   d="m 522.106,63.036 -9.787,-7.782 -4.288,11.653 -3.444,9.37 6.482,1.762 -3.596,30.172 14.984,23.092 12.543,-1.541 0,22.238 4.351,0 3.648,-4.696 1.857,-7.569 -16.634,-35.23 z"
   id="polygon67"
   inkscape:connector-curvature="0"
   sodipodi:nodetypes="cccccccccccccc" />
</g>
<g
   id="Calque_8"
   data-commune="Bouliac">
	<path
   d="m 462.059,371.891 c 0.374,2.703 1.169,6.581 2.599,8.979 2.791,4.686 10.207,17.126 9.365,31.839 -0.145,2.516 -0.11,4.522 0.023,6.117 1.135,-7.841 2.089,-18.099 0.526,-22.478 l -0.205,-0.57 0.087,-0.604 c 0.199,-1.396 1.576,-4.091 5.359,-4.289 0.807,-0.092 2.961,-2.222 4.346,-4.3 l 1.66,-2.491 2.118,2.107 c 1.577,1.575 3.513,3.124 4.649,3.783 0.925,-1.768 2.376,-6.142 3.463,-10.53 l 0.207,-0.881 26.015,-19.871 -1.054,-1.702 -7.269,0 -3.988,-6.538 -12.5,-0.786 -17.75,20.52 z"
   id="path70"
   inkscape:connector-curvature="0"
   style="fill:#b3b3b3"
   sodipodi:nodetypes="ccccccccccccccccccccc" />
</g>
<g
   id="Calque_7"
   data-commune="Bassens">
	<path
   d="m 469.533,244 1.76,-5.141 12.535,-6.225 10.275,-25.545 -41.199,-18.334 c 2.428,12.315 8.269,43.245 8.245,55.245 z"
   id="path73"
   inkscape:connector-curvature="0"
   style="fill:#b3b3b3"
   sodipodi:nodetypes="ccccccc" />
</g>
<g
   id="Calque_6"
   data-commune="Ambès">
	<path
   d="m 490.529,75 9.089,0 8.212,-22.013 -24.735,-3.247 -32.229,-16.099 -22.095,1.06 c 3.045,5.191 9.115,14.85 14.228,18.683 6.67,5.002 16.836,15.988 19.86,19.337 l 12.577,-1.655 z"
   id="path76"
   inkscape:connector-curvature="0"
   style="fill:#b3b3b3"
   sodipodi:nodetypes="cccccccccc" />
</g>
<g
   id="Calque_5"
   data-commune="Floirac">
	<path
   d="m 493.691,346.412 -1.803,-6.644 c -5.163,-14.018 -7.25,-19.935 -8.091,-22.54 l -12.131,-1.63 -20.388,-2.737 -1.901,9.708 14.617,16.647 -0.963,6.168 -6.187,7.197 c 1.127,3.274 3.494,10.313 4.5,14.443 l 15.927,-1.579 z"
   id="path79"
   inkscape:connector-curvature="0"
   style="fill:#b3b3b3"
   sodipodi:nodetypes="cccccccccccc" />
</g>
<g
   id="Calque_4"
   data-commune="Saint-Louis-de-Montferrand">
	<path
   d="m 468.44,166.505 8.269,-2.659 3.15,-9.262 -7.033,-3.462 14.507,-71.427 -12.277,-3.396 -10.062,1.198 c 2.083,8.003 7.587,31.235 5.361,45.676 -1.685,10.91 -8.49,19.852 -13.961,27.037 -3.01,3.953 -5.852,7.685 -6.228,9.943 -0.94,5.649 0.933,18.26 1.594,22.376 l 6.948,2.86 z"
   id="path82"
   inkscape:connector-curvature="0"
   style="fill:#b3b3b3"
   sodipodi:nodetypes="ccccccccscccc" />
</g>
<g
   id="Calque_3"
   data-commune="Cenon">
	<path
   d="m 483.731,312.264 c 0.626,-2.929 2.03,-9.154 5.179,-22.634 l -29.574,-4.411 -6.845,22.849 19.699,2.646 z"
   id="path85"
   inkscape:connector-curvature="0"
   style="fill:#b3b3b3"
   sodipodi:nodetypes="cccccc" />
</g>
<g
   id="Calque_2">
	<path
   d="m 458.787,340.729 -14.694,-16.733 2.311,-11.791 -0.268,-0.035 0.791,-2.642 0.422,-2.152 0.214,0.029 3.947,-13.18 3.475,-11.604 -2.308,-5.434 c -2.704,3.558 -7.091,8.979 -11.05,12.29 -7.502,6.275 -18.246,18.353 -17.484,24.348 0.854,6.707 12.618,20.26 16.199,23.336 2.314,1.988 9.901,8.428 13.451,11.438 l 4.603,-5.354 z"
   id="path88"
   inkscape:connector-curvature="0"
   style="fill:#b3b3b3"
   sodipodi:nodetypes="cccccccccccccccc" />
</g>
</svg>